# xmcd
#
# Track frame offsets: 
#        150
#        17094
#        30327
#        45002
#        61466
#        77922
#        92526
#        105545
#        118729
#        131823
#
# Disc length: 1983 seconds
#
# Revision: 0
# Processed by: cddbd v1.5.2PL0 Copyright (c) Steve Scherf et al.
# Submitted via: ExactAudioCopy v0.95b3
#
DISCID=7307bd0a
DTITLE=Brenda Lee  - Take Me Back
DYEAR=1900
DGENRE=
TTITLE0=Broken Trust
TTITLE1=What Am I Gonna Do
TTITLE2=Every Now and Then
TTITLE3=Take Me Back
TTITLE4=You Put It All Together
TTITLE5=Staring Each Other Down
TTITLE6=Right Behind The Rain
TTITLE7=Cracker Jack Diamons
TTITLE8=He'll Play The Music
TTITLE9=Too Many Nights Alone
EXTD=
EXTT0=
EXTT1=
EXTT2=
EXTT3=
EXTT4=
EXTT5=
EXTT6=
EXTT7=
EXTT8=
EXTT9=
PLAYORDER=
